<svg width="14" height="14" viewBox="0 0 14 14" fill="none" xmlns="http://www.w3.org/2000/svg">
<path fill-rule="evenodd" clip-rule="evenodd" d="M11.9498 13.3641C12.3403 13.7546 12.9734 13.7546 13.364 13.3641C13.7545 12.9736 13.7545 12.3404 13.364 11.9499L8.41424 7.00014L13.364 2.05043C13.7545 1.6599 13.7545 1.02674 13.364 0.636214C12.9734 0.245689 12.3403 0.245689 11.9497 0.636214L7.00003 5.58593L2.05026 0.636155C1.65973 0.24563 1.02657 0.245631 0.636045 0.636155C0.24552 1.02668 0.24552 1.65984 0.636045 2.05037L5.58582 7.00014L0.636033 11.9499C0.245508 12.3404 0.245509 12.9736 0.636033 13.3641C1.02656 13.7547 1.65972 13.7547 2.05025 13.3641L7.00003 8.41435L11.9498 13.3641Z" fill="#2C2C2C"/>
</svg>
